<mxfile host="app.diagrams.net" modified="2021-07-09T14:02:22.779Z" agent="5.0 (Windows NT 10.0; WOW64) AppleWebKit/537.36 (KHTML, like Gecko) Chrome/91.0.4472.124 Safari/537.36" etag="fv60VFYw9xfk4HvSHH1R" version="14.8.5" type="github">
  <diagram id="NmQORrtpRgCDVbi0yXkr" name="Page-1">
    <mxGraphModel dx="1108" dy="482" grid="1" gridSize="10" guides="1" tooltips="1" connect="1" arrows="1" fold="1" page="1" pageScale="1" pageWidth="850" pageHeight="1100" math="0" shadow="0">
      <root>
        <mxCell id="0" />
        <mxCell id="1" parent="0" />
        <mxCell id="fe6vI6DIKprl6WNbsexs-1" value="" style="rounded=1;whiteSpace=wrap;html=1;" vertex="1" parent="1">
          <mxGeometry x="280" y="80" width="260" height="370" as="geometry" />
        </mxCell>
        <mxCell id="fe6vI6DIKprl6WNbsexs-2" value="" style="line;strokeWidth=2;html=1;" vertex="1" parent="1">
          <mxGeometry x="280" y="350" width="260" height="10" as="geometry" />
        </mxCell>
        <mxCell id="fe6vI6DIKprl6WNbsexs-3" value="HARDWARE" style="text;html=1;strokeColor=none;fillColor=none;align=center;verticalAlign=middle;whiteSpace=wrap;rounded=0;" vertex="1" parent="1">
          <mxGeometry x="385" y="390" width="40" height="20" as="geometry" />
        </mxCell>
        <mxCell id="fe6vI6DIKprl6WNbsexs-4" value="" style="line;strokeWidth=2;html=1;" vertex="1" parent="1">
          <mxGeometry x="280" y="260" width="260" height="10" as="geometry" />
        </mxCell>
        <mxCell id="fe6vI6DIKprl6WNbsexs-5" value="OS" style="text;html=1;strokeColor=none;fillColor=none;align=center;verticalAlign=middle;whiteSpace=wrap;rounded=0;" vertex="1" parent="1">
          <mxGeometry x="385" y="310" width="40" height="20" as="geometry" />
        </mxCell>
        <mxCell id="fe6vI6DIKprl6WNbsexs-6" value="C1" style="ellipse;whiteSpace=wrap;html=1;aspect=fixed;" vertex="1" parent="1">
          <mxGeometry x="300" y="140" width="60" height="60" as="geometry" />
        </mxCell>
        <mxCell id="fe6vI6DIKprl6WNbsexs-8" value="C2" style="ellipse;whiteSpace=wrap;html=1;aspect=fixed;" vertex="1" parent="1">
          <mxGeometry x="380" y="140" width="60" height="60" as="geometry" />
        </mxCell>
        <mxCell id="fe6vI6DIKprl6WNbsexs-9" value="C3" style="ellipse;whiteSpace=wrap;html=1;aspect=fixed;" vertex="1" parent="1">
          <mxGeometry x="460" y="140" width="60" height="60" as="geometry" />
        </mxCell>
        <mxCell id="fe6vI6DIKprl6WNbsexs-13" value="" style="endArrow=classic;html=1;" edge="1" parent="1" target="fe6vI6DIKprl6WNbsexs-6">
          <mxGeometry width="50" height="50" relative="1" as="geometry">
            <mxPoint x="329" y="265" as="sourcePoint" />
            <mxPoint x="360" y="200" as="targetPoint" />
          </mxGeometry>
        </mxCell>
        <mxCell id="fe6vI6DIKprl6WNbsexs-14" value="" style="endArrow=classic;html=1;" edge="1" parent="1">
          <mxGeometry width="50" height="50" relative="1" as="geometry">
            <mxPoint x="409.5" y="265" as="sourcePoint" />
            <mxPoint x="410.18422801993006" y="199.9983381066413" as="targetPoint" />
          </mxGeometry>
        </mxCell>
        <mxCell id="fe6vI6DIKprl6WNbsexs-16" value="" style="endArrow=classic;html=1;" edge="1" parent="1">
          <mxGeometry width="50" height="50" relative="1" as="geometry">
            <mxPoint x="492.5" y="266" as="sourcePoint" />
            <mxPoint x="493.18422801993006" y="200.9983381066413" as="targetPoint" />
          </mxGeometry>
        </mxCell>
      </root>
    </mxGraphModel>
  </diagram>
</mxfile>
